<?xml version="1.0" encoding="utf-8"?>
<!-- Generator: Adobe Illustrator 22.0.1, SVG Export Plug-In . SVG Version: 6.00 Build 0)  -->
<svg version="1.1" id="Layer_1" xmlns="http://www.w3.org/2000/svg" xmlns:xlink="http://www.w3.org/1999/xlink" x="0px" y="0px"
	 viewBox="0 0 90 83.2" style="enable-background:new 0 0 90 83.2;" xml:space="preserve">
<path d="M55.1,56.6c0-0.1,0-0.3,0-0.4c-0.1-0.4-0.4-0.7-0.8-0.8c-9-2.1-15.9-9.6-17.2-18.8c-1.3-9.1,3.3-18.3,11.3-22.8
	c0.4-0.2,0.5-0.7,0.5-1c-0.1-0.4-0.4-0.7-0.7-0.8c-2.9-0.7-5.9-0.8-9-0.4c-6.5,0.9-12.2,4.3-16.1,9.5c-3.8,5.2-5.5,11.6-4.6,18.1
	c1.7,12.2,12.2,21.1,24.2,21.1c1.1,0,2.3-0.1,3.4-0.2c3-0.4,5.9-1.4,8.5-2.9c0,0,0,0,0.1,0C54.9,57,55.1,56.8,55.1,56.6z M57.5,31.3
	c-1.9,0-3.5-1.6-3.5-3.5s1.6-3.5,3.5-3.5s3.5,1.6,3.5,3.5C60.9,29.7,59.4,31.3,57.5,31.3z M57.5,26.3c-0.8,0-1.5,0.7-1.5,1.5
	s0.7,1.5,1.5,1.5c0.8,0,1.5-0.7,1.5-1.5S58.3,26.3,57.5,26.3z M3,25.1c-1.6,0-3-1.3-3-3s1.3-3,3-3s3,1.3,3,3S4.6,25.1,3,25.1z
	 M3,21.1c-0.5,0-1,0.4-1,1s0.4,1,1,1s1-0.4,1-1S3.5,21.1,3,21.1z M62.1,83.2c-1.6,0-3-1.3-3-3s1.3-3,3-3s3,1.3,3,3
	S63.8,83.2,62.1,83.2z M62.1,79.2c-0.5,0-1,0.4-1,1s0.4,1,1,1s1-0.4,1-1S62.7,79.2,62.1,79.2z M87,17.8c-1.6,0-3-1.3-3-3s1.3-3,3-3
	s3,1.3,3,3S88.7,17.8,87,17.8z M87,13.9c-0.5,0-1,0.4-1,1s0.4,1,1,1s1-0.4,1-1S87.6,13.9,87,13.9z M9.9,65.5c-2,0-3.6-1.6-3.6-3.6
	s1.6-3.6,3.6-3.6s3.6,1.6,3.6,3.6S11.9,65.5,9.9,65.5z M9.9,60.3c-0.9,0-1.6,0.7-1.6,1.6s0.7,1.6,1.6,1.6s1.6-0.7,1.6-1.6
	S10.8,60.3,9.9,60.3z M67.3,41.7l-0.6,3.6c0,0.1-0.1,0.2-0.2,0.2L63.2,47c-0.2,0.1-0.2,0.4,0,0.5l3.2,1.7c0.1,0,0.1,0.1,0.2,0.2
	l0.5,3.6c0,0.2,0.3,0.3,0.5,0.2l2.6-2.6c0.1-0.1,0.2-0.1,0.3-0.1l3.6,0.7c0.2,0,0.4-0.2,0.3-0.4l-1.6-3.3c0-0.1,0-0.2,0-0.3l1.8-3.2
	c0.1-0.2-0.1-0.5-0.3-0.4l-3.6,0.5c-0.1,0-0.2,0-0.3-0.1l-2.5-2.7C67.6,41.4,67.3,41.4,67.3,41.7z M83.8,66l-2.5,1.9
	c-0.1,0.1-0.1,0.1-0.2,0l-3-1c-0.2-0.1-0.4,0.1-0.3,0.3l1.1,3c0,0.1,0,0.2,0,0.2l-1.8,2.5c-0.1,0.2,0,0.4,0.2,0.4l3.1-0.1
	c0.1,0,0.2,0,0.2,0.1l1.9,2.5c0.1,0.2,0.4,0.1,0.4-0.1l0.9-3c0-0.1,0.1-0.1,0.2-0.2l3-1c0.2-0.1,0.2-0.3,0.1-0.4l-2.6-1.8
	c-0.1,0-0.1-0.1-0.1-0.2V66C84.2,66,83.9,65.9,83.8,66z M17,0.2l-0.7,3.4c0,0.1-0.1,0.2-0.2,0.2l-3.2,1.3c-0.2,0.1-0.2,0.4,0,0.5
	l3,1.8C16,7.4,16,7.5,16,7.6l0.3,3.5c0,0.2,0.3,0.3,0.5,0.2L19.4,9c0.1-0.1,0.2-0.1,0.3-0.1l3.4,0.8c0.2,0.1,0.4-0.2,0.3-0.4L22,6.1
	c0-0.1,0-0.2,0-0.3l1.8-3c0.1-0.2,0-0.4-0.3-0.4L20,2.8c-0.1,0-0.2,0-0.2-0.1L17.5,0C17.4-0.1,17.1,0,17,0.2z M72.4,0.2l-2.5,2.5
	c-0.1,0.1-0.2,0.1-0.2,0.1l-3.4-0.6c-0.2,0-0.4,0.2-0.3,0.4l1.6,3.1c0,0.1,0,0.2,0,0.3l-1.7,3.1c-0.1,0.2,0.1,0.4,0.3,0.4L69.7,9
	c0.1,0,0.2,0,0.2,0.1l2.4,2.5c0.2,0.2,0.4,0.1,0.5-0.1L73.3,8c0-0.1,0.1-0.2,0.2-0.2l3.2-1.5c0.2-0.1,0.2-0.4,0-0.5l-3.1-1.6
	c-0.1,0-0.1-0.1-0.1-0.2L73,0.5C72.8,0.1,72.6,0,72.4,0.2z M28.4,67.9l-2.5,2.5c-0.1,0.1-0.2,0.1-0.2,0.1l-3.4-0.6
	c-0.2,0-0.4,0.2-0.3,0.4l1.6,3.1c0,0.1,0,0.2,0,0.3l-1.7,3c-0.1,0.2,0.1,0.4,0.3,0.4l3.5-0.5c0.1,0,0.2,0,0.2,0.1l2.4,2.5
	c0.2,0.2,0.4,0.1,0.5-0.1l0.5-3.5c0-0.1,0.1-0.2,0.2-0.2l3.2-1.5c0.2-0.1,0.2-0.4,0-0.5l-3.1-1.6c-0.1,0-0.1-0.1-0.1-0.2L29,68.1
	C28.8,67.8,28.6,67.7,28.4,67.9z"/>
</svg>
