<?xml version="1.0" encoding="utf-8"?>
<!-- Generator: Adobe Illustrator 22.0.1, SVG Export Plug-In . SVG Version: 6.00 Build 0)  -->
<svg version="1.1" id="Layer_1" xmlns="http://www.w3.org/2000/svg" xmlns:xlink="http://www.w3.org/1999/xlink" x="0px" y="0px"
	 viewBox="0 0 60 60" style="enable-background:new 0 0 60 60;" xml:space="preserve">
<style type="text/css">
	.st0{fill:#D87600;}
</style>
<title>day-light-metering-photography-sun</title>
<g>
	<path class="st0" d="M50,30c0-11-9-20-20-20s-20,9-20,20s9,20,20,20S50,41,50,30z M30,48c-9.9,0-18-8.1-18-18s8.1-18,18-18
		s18,8.1,18,18S39.9,48,30,48z"/>
	<rect x="53" y="29" class="st0" width="7" height="2"/>
	<rect y="29" class="st0" width="7" height="2"/>
	<rect x="49.5" y="15.8" transform="matrix(0.8661 -0.4999 0.4999 0.8661 -1.3011 28.754)" class="st0" width="7" height="2"/>
	<rect x="3.6" y="42.2" transform="matrix(0.866 -0.5 0.5 0.866 -20.6388 9.3372)" class="st0" width="7" height="2"/>
	<rect x="39.8" y="6.1" transform="matrix(0.4999 -0.8661 0.8661 0.4999 15.5086 41.0147)" class="st0" width="7" height="2"/>
	<rect x="13.3" y="51.9" transform="matrix(0.4999 -0.8661 0.8661 0.4999 -37.4494 41.0083)" class="st0" width="7" height="2"/>
	<rect x="29" class="st0" width="2" height="7"/>
	<rect x="29" y="53" class="st0" width="2" height="7"/>
	<rect x="15.8" y="3.6" transform="matrix(0.866 -0.5 0.5 0.866 -1.2994 9.3609)" class="st0" width="2" height="7"/>
	<rect x="42.2" y="49.4" transform="matrix(0.866 -0.5 0.5 0.866 -20.6623 28.6768)" class="st0" width="2" height="7"/>
	<rect x="6.1" y="13.3" transform="matrix(0.5 -0.866 0.866 0.5 -10.998 14.5115)" class="st0" width="2" height="7"/>
	<rect x="52" y="39.8" transform="matrix(0.5 -0.866 0.866 0.5 -10.997 67.5097)" class="st0" width="2" height="7"/>
</g>
</svg>
